# xmcd
#
# Track frame offsets:
#	150
#	7613
#	30830
#	51879
#	71839
#	84744
#	96434
#	115405
#	120528
#	136069
#	155637
#	171975
#	186683
#	217494
#	236688
#	252756
#	275089
#
# Disc length: 4080 seconds
#
# Revision: 0
# Processed by: cddbd v1.5.1PL0 Copyright (c) Steve Scherf et al.
# Submitted via: dBpowerAMP V4.0
#
DISCID=fb0fee11
DTITLE=Various Artist - Warehouse
DYEAR=2002
DGENRE=Blues
TTITLE0=My Day (Intro) - The Chapter
TTITLE1=She Far Out - The Chapter
TTITLE2=Born - The Chapter
TTITLE3=Morning - The Chapter
TTITLE4=Round and Round - The Chapter
TTITLE5=The Deliverance - The Chapter
TTITLE6=My Day - The Chapter
TTITLE7=Home Town Inevitability - The Chapter
TTITLE8=Aint That a Bitch - Budists
TTITLE9=Song #1 - Budists
TTITLE10=Tarts Pants - Budists
TTITLE11=Medicine Man - Budists
TTITLE12=Scary-Go-Round (Trip By The C) - Budists
TTITLE13=Soul Provider - Budists
TTITLE14=Pank Funk - Budists
TTITLE15=Hair Today - Budists
TTITLE16=If We Try - Budists
EXTD=CD from the book Warehouse (ISBN 1 901927 10 5) see www.route-online.com
EXTT0=
EXTT1=
EXTT2=
EXTT3=
EXTT4=
EXTT5=
EXTT6=
EXTT7=
EXTT8=
EXTT9=
EXTT10=
EXTT11=
EXTT12=
EXTT13=
EXTT14=
EXTT15=
EXTT16=
PLAYORDER=
